<?xml version="1.0" encoding="UTF-8" standalone="no"?>
<!-- Created with Inkscape (http://www.inkscape.org/) -->

<svg
   xmlns:dc="http://purl.org/dc/elements/1.1/"
   xmlns:cc="http://creativecommons.org/ns#"
   xmlns:rdf="http://www.w3.org/1999/02/22-rdf-syntax-ns#"
   xmlns:svg="http://www.w3.org/2000/svg"
   xmlns="http://www.w3.org/2000/svg"
   xmlns:sodipodi="http://sodipodi.sourceforge.net/DTD/sodipodi-0.dtd"
   xmlns:inkscape="http://www.inkscape.org/namespaces/inkscape"
   width="297mm"
   height="210mm"
   viewBox="0 0 297 210"
   version="1.1"
   id="svg8"
   inkscape:version="0.92.2 (5c3e80d, 2017-08-06)"
   sodipodi:docname="chirimoya.svg">
  <defs
     id="defs2" />
  <sodipodi:namedview
     id="base"
     pagecolor="#ffffff"
     bordercolor="#666666"
     borderopacity="1.0"
     inkscape:pageopacity="0.0"
     inkscape:pageshadow="2"
     inkscape:zoom="0.98994948"
     inkscape:cx="531.60947"
     inkscape:cy="367.21983"
     inkscape:document-units="mm"
     inkscape:current-layer="layer1"
     showgrid="false"
     showborder="true"
     inkscape:snap-midpoints="true"
     inkscape:window-width="1920"
     inkscape:window-height="1051"
     inkscape:window-x="0"
     inkscape:window-y="0"
     inkscape:window-maximized="1" />
  <metadata
     id="metadata5">
    <rdf:RDF>
      <cc:Work
         rdf:about="">
        <dc:format>image/svg+xml</dc:format>
        <dc:type
           rdf:resource="http://purl.org/dc/dcmitype/StillImage" />
        <dc:title></dc:title>
      </cc:Work>
    </rdf:RDF>
  </metadata>
  <g
     inkscape:label="Capa 1"
     inkscape:groupmode="layer"
     id="layer1"
     transform="translate(0,-87)">
    <ellipse
       style="fill:#000000;fill-opacity:1;stroke:#20a549;stroke-width:0;stroke-linecap:round;stroke-linejoin:round;stroke-miterlimit:4;stroke-dasharray:none;stroke-opacity:1"
       id="path4520"
       cx="140.36465"
       cy="133.80719"
       rx="17.570992"
       ry="9.320096"
       transform="matrix(0.98183504,0.18973653,-0.15506515,0.98790425,0,0)" />
    <ellipse
       transform="matrix(-0.97473527,0.22336329,-0.2575289,-0.9662706,0,0)"
       ry="9.320096"
       rx="17.570992"
       cy="-195.12558"
       cx="-137.40436"
       id="ellipse4522"
       style="fill:#000000;fill-opacity:1;stroke:#20a549;stroke-width:0;stroke-linecap:round;stroke-linejoin:round;stroke-miterlimit:4;stroke-dasharray:none;stroke-opacity:1" />
    <ellipse
       style="fill:#000000;fill-opacity:1;stroke:#20a549;stroke-width:0;stroke-linecap:round;stroke-linejoin:round;stroke-miterlimit:4;stroke-dasharray:none;stroke-opacity:1"
       id="ellipse4543"
       cx="-169.80528"
       cy="-200.77715"
       rx="17.570992"
       ry="9.320096"
       transform="matrix(-0.99918453,0.04037664,-0.07551606,-0.99714459,0,0)" />
    <ellipse
       transform="matrix(0.99958823,0.0286946,0.00650181,0.99997886,0,0)"
       ry="9.320096"
       rx="17.570992"
       cy="189.33476"
       cx="117.4969"
       id="ellipse4545"
       style="fill:#000000;fill-opacity:1;stroke:#20a549;stroke-width:0;stroke-linecap:round;stroke-linejoin:round;stroke-miterlimit:4;stroke-dasharray:none;stroke-opacity:1" />
    <ellipse
       style="fill:#000000;fill-opacity:1;stroke:#20a549;stroke-width:0;stroke-linecap:round;stroke-linejoin:round;stroke-miterlimit:4;stroke-dasharray:none;stroke-opacity:1"
       id="ellipse4547"
       cx="64.757988"
       cy="247.08633"
       rx="17.570992"
       ry="9.320096"
       transform="matrix(0.97814013,-0.20794683,0.24224182,0.9702159,0,0)" />
    <ellipse
       transform="matrix(0.9903231,0.13878098,-0.10384245,0.99459376,0,0)"
       ry="9.320096"
       rx="17.570992"
       cy="198.81258"
       cx="205.52669"
       id="ellipse4549"
       style="fill:#000000;fill-opacity:1;stroke:#20a549;stroke-width:0;stroke-linecap:round;stroke-linejoin:round;stroke-miterlimit:4;stroke-dasharray:none;stroke-opacity:1" />
    <path
       style="fill:#f9f9f9;fill-opacity:1;stroke:#20a549;stroke-width:0;stroke-linecap:round;stroke-linejoin:round;stroke-miterlimit:4;stroke-dasharray:none;stroke-opacity:1"
       d="m 128.74711,289.89587 c -21.09558,-0.76417 -37.478444,-2.94132 -40.356514,-5.36306 -1.20163,-1.01111 -3.921374,-5.4094 -6.368687,-10.29928 C 68.116041,246.44887 49.7037,187.0876 49.692681,170.00436 l -0.0018,-2.94928 1.495727,-2.05225 c 2.035482,-2.79285 10.838273,-11.49793 16.735602,-16.54987 22.414516,-19.20141 54.35803,-41.67 71.79597,-50.500276 4.59078,-2.32471 8.55706,-3.89402 9.84171,-3.89402 3.04824,0 15.77772,6.514356 28.87975,14.779336 28.48622,17.96956 62.47517,44.72443 70.17851,55.24197 l 1.5362,2.09741 -0.18206,4.5175 c -0.77295,19.17926 -18.08451,76.282 -31.20619,102.93457 -2.81987,5.7277 -5.34913,9.85422 -6.50352,10.6106 -1.80392,1.18197 -10.1043,2.85573 -19.30239,3.89227 -15.72075,1.77162 -43.17528,2.52561 -64.2131,1.76355 z m -1.77473,-54.78568 c 8.0352,-2.11609 14.13046,-7.41509 13.63058,-11.84994 -0.99448,-8.82311 -22.23638,-9.17195 -31.58577,-0.5187 -5.5719,5.15702 -3.73269,10.8163 4.16392,12.81241 2.74908,0.6949 10.40261,0.44864 13.79127,-0.44377 z m 65.81256,0.104 c 2.48578,-0.67587 4.26642,-1.57824 5.60769,-2.84184 1.45464,-1.37043 1.99056,-2.49085 1.98212,-4.14401 -0.0213,-4.18252 -4.71644,-8.23253 -12.1093,-10.44563 -4.17823,-1.25077 -11.09771,-1.48327 -14.97375,-0.50309 -4.3503,1.10011 -7.0211,3.10943 -7.75481,5.83416 -1.404,5.21413 6.06248,10.97402 16.31825,12.58849 2.61954,0.41237 8.6003,0.1453 10.9298,-0.48808 z m -1.43813,-33.21087 c 5.49093,-1.24999 10.12914,-4.46486 10.97529,-7.60726 1.11164,-4.12823 -2.83587,-7.99177 -9.93184,-9.72058 -3.90621,-0.95167 -10.06876,-0.94989 -14.01812,0.003 -8.23558,1.98926 -12.68296,6.58914 -10.77822,11.14783 1.2664,3.03097 6.13085,5.74435 11.96756,6.67554 2.48197,0.39597 9.08004,0.11622 11.78533,-0.49958 z m -64.10838,-0.78206 c 8.36794,-2.20256 11.49203,-7.6257 7.09862,-12.3226 -1.85197,-1.9799 -3.50752,-2.94721 -7.09296,-4.14427 -11.12897,-3.71558 -25.23941,-0.10443 -26.15107,6.69251 -0.59873,4.46382 4.67718,8.69253 12.75745,10.22521 3.43932,0.65238 10.04125,0.43004 13.38796,-0.45085 z m 0.26459,-33.21448 c 10.14352,-2.8127 9.0799,-11.22683 -2.06498,-16.33578 -8.82937,-4.04748 -20.78822,-3.46638 -24.54413,1.19265 -1.337564,1.65919 -1.559644,4.1137 -0.55919,6.18035 1.8469,3.81518 8.00871,7.56076 14.89634,9.055 3.12664,0.67832 9.67049,0.62914 12.27196,-0.0922 z m 58.19691,-0.86371 c 5.01128,-0.9417 10.26821,-3.4656 13.07783,-6.27876 4.782,-4.78805 3.33345,-9.92366 -3.39747,-12.04507 -3.24339,-1.02226 -10.38932,-0.99759 -14.3592,0.0496 -6.19458,1.63398 -12.00838,5.41622 -13.55121,8.81589 -0.74958,1.65175 -0.82808,3.81768 -0.18353,5.06411 2.21489,4.28315 9.61158,6.0483 18.41358,4.39426 z"
       id="path4551"
       inkscape:connector-curvature="0" />
    <path
       style="fill:#e6e6e6;fill-opacity:1;stroke:#20a549;stroke-width:0;stroke-linecap:round;stroke-linejoin:round;stroke-miterlimit:4;stroke-dasharray:none;stroke-opacity:1"
       d="m 150.19697,268.22865 c -0.10748,-12.15838 -0.19542,-56.30848 -0.19542,-98.11133 V 94.112144 l 0.89046,0.17809 c 3.68648,0.73729 14.98579,6.635696 26.40131,13.781856 29.54165,18.4932 64.70624,46.22115 71.90772,56.70061 1.02476,1.49121 1.17353,2.71268 0.84007,6.89729 -2.0196,25.34369 -24.60146,94.42134 -36.23598,110.84541 -1.16726,1.64778 -1.44598,1.86291 -3.11913,2.40736 -8.6958,2.82966 -26.47985,4.62061 -51.75735,5.21225 l -8.53626,0.1998 z m 42.5091,-33.02673 c 5.47661,-1.50623 8.39657,-4.70542 7.50963,-8.22778 -1.53208,-6.08447 -12.10857,-10.9293 -22.47823,-10.29673 -4.93711,0.30117 -8.761,1.72318 -10.84916,4.03452 -4.73564,5.24179 2.27941,12.61093 14.07768,14.78827 2.97731,0.54946 9.23586,0.39045 11.74008,-0.29828 z m -4.28029,-32.72854 c 8.03906,-1.00801 14.1339,-5.18716 14.10451,-9.67125 -0.0141,-2.15181 -2.35156,-4.92372 -5.42997,-6.43921 -3.60076,-1.77265 -5.84041,-2.18903 -11.7318,-2.18107 -4.50961,0.006 -5.62678,0.10118 -7.63105,0.6496 -12.92851,3.53752 -14.23723,12.79877 -2.34801,16.61587 4.00151,1.28471 8.28483,1.62184 13.03632,1.02606 z m -5.25852,-34.92178 c 5.87225,-0.75961 12.03962,-3.34275 15.15982,-6.34954 2.27395,-2.19129 3.14854,-3.84181 3.16316,-5.96946 0.0603,-8.78534 -19.96533,-9.84554 -30.43055,-1.61105 -3.03287,2.3864 -4.67301,5.46095 -4.18033,7.8363 0.93709,4.51797 8.01081,7.16444 16.2879,6.09375 z"
       id="path4563"
       inkscape:connector-curvature="0" />
    <path
       sodipodi:type="star"
       style="fill:none;stroke:#20a549;stroke-width:4.76081848;stroke-linecap:round;stroke-linejoin:round;stroke-miterlimit:4;stroke-dasharray:none;stroke-opacity:1"
       id="path4516"
       sodipodi:sides="5"
       sodipodi:cx="66.523804"
       sodipodi:cy="88.735115"
       sodipodi:r1="80.849808"
       sodipodi:r2="65.408867"
       sodipodi:arg1="0.95815539"
       sodipodi:arg2="1.5864739"
       inkscape:flatsided="true"
       inkscape:rounded="0.12"
       inkscape:randomized="0"
       d="m 113.01488,154.88095 c -9.33109,6.55842 -85.912075,5.35772 -95.032973,-1.49001 C 8.8610097,146.54321 -13.661877,73.339331 -9.967811,62.548777 -6.2737446,51.758223 56.387326,7.7164418 67.791282,7.895243 79.195239,8.0740443 140.4448,54.058605 143.79876,64.959664 c 3.35397,10.90106 -21.45279,83.362866 -30.78388,89.921286 z"
       inkscape:transform-center-x="0.17674363"
       inkscape:transform-center-y="-10.039952"
       transform="matrix(1.3219332,-0.02780171,0.02780171,1.3219332,60.586509,83.128143)" />
  </g>
</svg>
