<?xml version="1.0" encoding="UTF-8" standalone="no"?>
<!-- Created with Inkscape (http://www.inkscape.org/) -->

<svg
   xmlns:dc="http://purl.org/dc/elements/1.1/"
   xmlns:cc="http://creativecommons.org/ns#"
   xmlns:rdf="http://www.w3.org/1999/02/22-rdf-syntax-ns#"
   xmlns:svg="http://www.w3.org/2000/svg"
   xmlns="http://www.w3.org/2000/svg"
   xmlns:sodipodi="http://sodipodi.sourceforge.net/DTD/sodipodi-0.dtd"
   xmlns:inkscape="http://www.inkscape.org/namespaces/inkscape"
   width="297mm"
   height="210mm"
   viewBox="0 0 297 210"
   version="1.1"
   id="svg8"
   inkscape:version="0.92.2 (5c3e80d, 2017-08-06)"
   sodipodi:docname="chirimoya.svg">
  <defs
     id="defs2" />
  <sodipodi:namedview
     id="base"
     pagecolor="#ffffff"
     bordercolor="#666666"
     borderopacity="1.0"
     inkscape:pageopacity="0.0"
     inkscape:pageshadow="2"
     inkscape:zoom="0.98994948"
     inkscape:cx="510.82929"
     inkscape:cy="371.26044"
     inkscape:document-units="mm"
     inkscape:current-layer="layer1"
     showgrid="false"
     showborder="true"
     inkscape:snap-midpoints="true"
     inkscape:window-width="1920"
     inkscape:window-height="1051"
     inkscape:window-x="0"
     inkscape:window-y="0"
     inkscape:window-maximized="1" />
  <metadata
     id="metadata5">
    <rdf:RDF>
      <cc:Work
         rdf:about="">
        <dc:format>image/svg+xml</dc:format>
        <dc:type
           rdf:resource="http://purl.org/dc/dcmitype/StillImage" />
        <dc:title />
      </cc:Work>
    </rdf:RDF>
  </metadata>
  <g
     inkscape:label="Capa 1"
     inkscape:groupmode="layer"
     id="layer1"
     transform="translate(0,-87)">
    <ellipse
       style="fill:#000000;fill-opacity:1;stroke:#20a549;stroke-width:0;stroke-linecap:round;stroke-linejoin:round;stroke-miterlimit:4;stroke-dasharray:none;stroke-opacity:1"
       id="path4520"
       cx="149.06599"
       cy="133.62268"
       rx="16.000549"
       ry="8.4870939"
       transform="matrix(0.98183504,0.18973653,-0.15506515,0.98790425,0,0)" />
    <ellipse
       transform="matrix(-0.97473527,0.22336329,-0.2575289,-0.9662706,0,0)"
       ry="8.4870939"
       rx="16.000549"
       cy="-197.21751"
       cx="-139.4915"
       id="ellipse4522"
       style="fill:#000000;fill-opacity:1;stroke:#20a549;stroke-width:0;stroke-linecap:round;stroke-linejoin:round;stroke-miterlimit:4;stroke-dasharray:none;stroke-opacity:1" />
    <ellipse
       style="fill:#000000;fill-opacity:1;stroke:#20a549;stroke-width:0;stroke-linecap:round;stroke-linejoin:round;stroke-miterlimit:4;stroke-dasharray:none;stroke-opacity:1"
       id="ellipse4543"
       cx="-172.43732"
       cy="-199.26187"
       rx="16.000549"
       ry="8.4870939"
       transform="matrix(-0.99918453,0.04037664,-0.07551606,-0.99714459,0,0)" />
    <ellipse
       transform="matrix(0.99958823,0.0286946,0.00650181,0.99997886,0,0)"
       ry="8.4870939"
       rx="16.000549"
       cy="187.53293"
       cx="125.93977"
       id="ellipse4545"
       style="fill:#000000;fill-opacity:1;stroke:#20a549;stroke-width:0;stroke-linecap:round;stroke-linejoin:round;stroke-miterlimit:4;stroke-dasharray:none;stroke-opacity:1" />
    <ellipse
       style="fill:#000000;fill-opacity:1;stroke:#20a549;stroke-width:0;stroke-linecap:round;stroke-linejoin:round;stroke-miterlimit:4;stroke-dasharray:none;stroke-opacity:1"
       id="ellipse4547"
       cx="73.652794"
       cy="244.29393"
       rx="16.000549"
       ry="8.4870939"
       transform="matrix(0.97814013,-0.20794683,0.24224182,0.9702159,0,0)" />
    <ellipse
       transform="matrix(0.9903231,0.13878098,-0.10384245,0.99459376,0,0)"
       ry="8.4870939"
       rx="16.000549"
       cy="193.92165"
       cx="207.72862"
       id="ellipse4549"
       style="fill:#000000;fill-opacity:1;stroke:#20a549;stroke-width:0;stroke-linecap:round;stroke-linejoin:round;stroke-miterlimit:4;stroke-dasharray:none;stroke-opacity:1" />
    <path
       style="fill:#f9f9f9;fill-opacity:1;stroke:#20a549;stroke-width:0;stroke-linecap:round;stroke-linejoin:round;stroke-miterlimit:4;stroke-dasharray:none;stroke-opacity:1"
       d="M 136.27498,279.64947 C 117.06486,278.9536 102.14625,276.97104 99.525415,274.76574 98.431183,273.845 95.954519,269.83982 93.725939,265.38698 81.062936,240.08563 64.296234,186.02989 64.2862,170.4735 l -0.0016,-2.68568 1.362044,-1.86883 c 1.853556,-2.54323 9.86958,-10.47028 15.239824,-15.07069 20.411172,-17.48524 49.499662,-37.94566 65.379052,-45.98672 4.18047,-2.11693 7.79226,-3.54598 8.96209,-3.54598 2.7758,0 14.36756,5.93213 26.29857,13.45841 25.9402,16.36349 56.89132,40.72709 63.90616,50.30461 l 1.3989,1.90995 -0.16579,4.11374 c -0.70386,17.46507 -16.46817,69.46414 -28.41707,93.73458 -2.56784,5.21578 -4.87104,8.97348 -5.92226,9.66226 -1.64269,1.07633 -9.2012,2.60049 -17.5772,3.54439 -14.31567,1.61328 -39.3164,2.29988 -58.47392,1.60593 z m -1.61611,-49.8891 c 7.31704,-1.92696 12.86752,-6.75235 12.41232,-10.79083 -0.9056,-8.03453 -20.24896,-8.35219 -28.76273,-0.47234 -5.0739,4.6961 -3.39907,9.84957 3.79176,11.66728 2.50338,0.63279 9.47286,0.40854 12.55865,-0.40411 z m 59.93043,0.0947 c 2.26361,-0.61546 3.8851,-1.43718 5.10649,-2.58784 1.32463,-1.24795 1.81265,-2.26823 1.80497,-3.77363 -0.0194,-3.8087 -4.2949,-7.49673 -11.02701,-9.51203 -3.80479,-1.13898 -10.10583,-1.3507 -13.63544,-0.45813 -3.96149,1.00179 -6.39358,2.83152 -7.06171,5.31272 -1.27852,4.74811 5.52063,9.9932 14.85977,11.46337 2.38542,0.37551 7.83163,0.13231 9.95293,-0.44446 z m -1.30959,-30.24258 c 5.00016,-1.13827 9.22382,-4.0658 9.99435,-6.92734 1.01228,-3.75927 -2.58241,-7.27749 -9.04416,-8.85179 -3.55709,-0.86661 -9.16885,-0.86499 -12.76523,0.003 -7.49951,1.81146 -11.54939,6.00022 -9.81489,10.15147 1.15321,2.76007 5.58289,5.23094 10.89793,6.0789 2.26014,0.36058 8.2685,0.10583 10.732,-0.45493 z m -58.37857,-0.71216 c 7.62004,-2.0057 10.46491,-6.94414 6.46417,-11.22124 -1.68645,-1.80295 -3.19403,-2.6838 -6.45902,-3.77387 -10.13429,-3.38349 -22.98358,-0.0951 -23.81376,6.09435 -0.54522,4.06486 4.25915,7.91562 11.61723,9.31131 3.13192,0.59408 9.14379,0.39161 12.19138,-0.41055 z m 0.24094,-30.24587 c 9.23692,-2.56131 8.26837,-10.22341 -1.88042,-14.87574 -8.04022,-3.68573 -18.93023,-3.15656 -22.35045,1.08606 -1.21801,1.51089 -1.42024,3.74603 -0.50921,5.62797 1.68183,3.47419 7.29292,6.885 13.56495,8.24569 2.84719,0.61769 8.80617,0.57291 11.17513,-0.084 z m 52.99545,-0.78651 c 4.56338,-0.85754 9.35047,-3.15586 11.90897,-5.71759 4.3546,-4.36011 3.03552,-9.03671 -3.09381,-10.96852 -2.95351,-0.93089 -9.46076,-0.90842 -13.07582,0.0452 -5.64093,1.48794 -10.93511,4.93213 -12.34005,8.02795 -0.68258,1.50412 -0.75406,3.47647 -0.16712,4.6115 2.01693,3.90033 8.75252,5.50772 16.76783,4.00151 z"
       id="path4551"
       inkscape:connector-curvature="0" />
    <path
       style="fill:#e6e6e6;fill-opacity:1;stroke:#20a549;stroke-width:0;stroke-linecap:round;stroke-linejoin:round;stroke-miterlimit:4;stroke-dasharray:none;stroke-opacity:1"
       d="m 588.87956,653.55139 c -0.36993,-41.8458 -0.67259,-193.7983 -0.67259,-337.67221 V 54.290254 l 3.06471,0.612941 c 12.68785,2.53757 51.57699,22.838257 90.86606,47.433385 101.67422,63.64849 222.70107,159.08048 247.48659,195.1479 3.52694,5.13233 4.03897,9.3363 2.89128,23.73858 -6.9509,87.22601 -84.67145,324.97224 -124.71426,381.4994 -4.01739,5.6712 -4.97669,6.4116 -10.7352,8.28545 -29.92853,9.73892 -91.13636,15.90289 -178.13456,17.93913 l -29.37945,0.68765 z M 735.18417,539.88245 c 18.84901,-5.184 28.89871,-16.19473 25.84611,-28.31773 -5.27302,-20.94107 -41.67439,-37.61566 -77.36389,-35.43852 -16.99217,1.03655 -30.15296,5.93071 -37.33982,13.88571 -16.29877,18.04078 7.84509,43.40334 48.4515,50.89716 10.24707,1.89108 31.78728,1.3438 40.4061,-1.02662 z M 720.45261,427.23983 c 27.66821,-3.4693 48.64499,-17.85276 48.54385,-33.28578 -0.0486,-7.40593 -8.09343,-16.94608 -18.68846,-22.16199 -12.39284,-6.10098 -20.10111,-7.53403 -40.37765,-7.50665 -15.52083,0.021 -19.36581,0.34826 -26.26396,2.23575 -44.49639,12.17517 -49.00065,44.04984 -8.08122,57.18727 13.77211,4.42162 28.51412,5.58192 44.86744,3.5314 z m -18.0984,-120.19115 c 20.21068,-2.61437 41.43706,-11.50484 52.17596,-21.85338 7.82628,-7.5418 10.8364,-13.22245 10.8867,-20.54524 0.20772,-30.23672 -68.71515,-33.88562 -104.73356,-5.54478 -10.43832,8.21332 -16.08324,18.79508 -14.38756,26.97039 3.22521,15.54962 27.571,24.65804 56.05846,20.97301 z"
       id="path4563"
       inkscape:connector-curvature="0"
       transform="matrix(0.26458333,0,0,0.26458333,0,87)" />
    <path
       sodipodi:type="star"
       style="fill:none;stroke:#20a549;stroke-width:4.76081848;stroke-linecap:round;stroke-linejoin:round;stroke-miterlimit:4;stroke-dasharray:none;stroke-opacity:1"
       id="path4516"
       sodipodi:sides="5"
       sodipodi:cx="66.523804"
       sodipodi:cy="88.735115"
       sodipodi:r1="80.849808"
       sodipodi:r2="65.408867"
       sodipodi:arg1="0.95815539"
       sodipodi:arg2="1.5864739"
       inkscape:flatsided="true"
       inkscape:rounded="0.12"
       inkscape:randomized="0"
       d="m 113.01488,154.88095 c -9.33109,6.55842 -85.912075,5.35772 -95.032973,-1.49001 C 8.8610097,146.54321 -13.661877,73.339331 -9.967811,62.548777 -6.2737446,51.758223 56.387326,7.7164418 67.791282,7.895243 79.195239,8.0740443 140.4448,54.058605 143.79876,64.959664 c 3.35397,10.90106 -21.45279,83.362866 -30.78388,89.921286 z"
       inkscape:transform-center-x="0.16094572"
       inkscape:transform-center-y="-9.1426114"
       transform="matrix(1.2037828,-0.02531688,0.02531688,1.2037828,74.206371,91.362016)" />
  </g>
</svg>
